<?xml version="1.0" ?><svg enable-background="new -201.88 150.462 472.942 264.923" id="Layer_1" version="1.1" viewBox="-201.88 150.462 472.942 264.923" xml:space="preserve" xmlns="http://www.w3.org/2000/svg" xmlns:xlink="http://www.w3.org/1999/xlink"><g><g id="_x32_56-php"><g><g><g><g><path d="M-36.969,270.008c-2,8-7.075,13.942-13.075,18.942c-3,3-5.932,4.193-9.932,5.193c-4.998,0.5-9.748,1.573-14.496,2.073        c-4.752,0.501-9.45,0.23-14.452-1.271c0-5.642,0.473-11.031,1.539-16.342c1.081-5.386,2.413-10.721,4.06-15.994        c1.623-5.195,3.276-10.408,4.935-15.713c0-1,1.39-1.438,2.39-1.438c4.897,0,9.796-0.925,14.576-1.062        c4.98-0.143,9.837,0.06,14.429,1.59c5.092,2.037,6.763,5.95,7.48,10.429c0.692,4.317,0.47,9.18,0.47,13.597        c0.199,0.679,0.338-1.326,1.045-1.326s0.373,0.943,0.878,1.437C-37.11,270.135-36.969,270.008-36.969,270.008z         M-124.011,351.971c8-3,17.069-0.938,26.069-2.938c-5-5-0.202-13.049-0.202-19.049c1-3,1.948-6.082,2.948-9.082        c2-3,2.196-5.809,7.196-5.809c5.519,0,11.292,0.297,17.063,0.419c5.729,0.122,11.377-0.295,16.858-1.79        c4.988-1.496,9.872-3.323,14.487-5.689c4.638-2.378,9.434-4.727,12.942-8.736c3.399-4.127,6.106-8.84,8.626-13.456        c2.594-4.753,4.605-9.721,5.899-14.776c1.332-5.208,2.195-10.541,1.744-15.834c-0.438-5.138-2.08-10.256-4.578-15.253        c-2.495-3.993-6.175-6.689-10.166-8.814c-4.006-2.132-8.343-3.834-12.851-4.335c-6-1-12.053,1.332-18.053,0.332        c-5.199-0.975-10.265-1.446-15.287-1.429c-5.183,0.018-10.332-0.058-15.401,0.423c-5.135,0.488-10.397,1.29-15.493,1.629        c-1.285,5.852-2.333,11.934-3.506,17.821c-1.172,5.878-1.975,11.831-3.06,17.733c-1.084,5.898-2.072,11.813-3.093,17.723        c-1.021,5.912-1.985,11.831-2.965,17.744c-0.982,5.925-2.301,11.787-3.266,17.7c-0.967,5.929-1.733,11.883-2.706,17.788        c-0.977,5.932-1.761,11.885-2.768,17.781C-123.577,352.09-124.011,351.971-124.011,351.971z M14,196.968        c4.506,0,9.01,0.098,13.515,0.224c4.495,0.125,9.011,0.165,13.505,0.665c-1,0-1.268-0.55-1.841,0.269        c-2.499,4.998-4.27,9.854-5.146,14.977c-0.876,5.127-0.948,10.322-0.948,15.825c5.5,1,10.691,1.286,15.941,1.786        s10.561,0.894,16.061,1.894c8,2,16.519,4.63,21.519,12.63c4,7,1.38,14.76-0.62,22.76c-1.66,5.978-3.295,11.853-4.955,17.683        c-1.68,5.897-3.669,11.668-5.348,17.564c-1.66,5.829-3.055,11.745-4.715,17.721c-5,0-9.969,0.348-14.969,0.348        s-9.856-0.41-14.856-0.41c1.533-5.111,3.03-10.179,4.819-15.424c1.711-5.016,3.542-10.11,5.009-15.487        c1.984-5.458,5.157-10.504,7.153-15.836c2.026-5.414,3.181-11.152,2.173-17.198c0-1-1.278-1.986-2.278-2.986        c-2-1-4.104-1.692-6.104-2.692c-8-2-15.847,0.066-23.846-2.934c-3.265,5.274-5.547,10.651-7.693,16.429        c-2.134,5.746-4.182,11.551-5.742,17.545c-1.551,5.96-2.754,12.03-4.259,17.99c-1.52,6.02-3.11,12.268-5.117,18.036        c-5.019-0.502-10.019-1.541-14.786-2.169c-4.733-0.624-9.795-1.021-14.777-2.017c1.581-5.46,3.577-11.043,5.131-16.503        c1.555-5.463,2.633-11.062,4.191-16.524c1.557-5.458,3.006-10.952,4.596-16.41c1.586-5.446,4.003-10.653,5.652-16.099        c1.642-5.424,3.251-10.864,4.984-16.289c1.723-5.394,2.994-10.955,4.835-16.349c1.828-5.354,3.701-10.707,5.673-16.061        c0-1,0.16-4.558,3.16-3.558c2.698,0.6,6.083,0.367,0.083,0.367C13.985,196.734,14,196.968,14,196.968z M169.031,278.006        c-1.217,5.839-3.757,10.503-7.086,14.251c-3.567,4.018-8.03,7.104-13.133,9.097c-4.874,1.903-10.275,3.056-15.728,3.458        c-5.4,0.399-10.865-0.158-16.047-0.898c-1.455-0.645-1.15-1.926-1.15-2.926c0.674-5.388,1.52-10.834,2.835-16.184        c1.3-5.284,2.794-10.598,4.646-15.771c1.841-5.142,4.614-9.725,6.929-14.685c7-3,14.701-1.335,21.701-1.335        c4,1,9.009-0.024,13.009,2.976c7,5,6.708,14.89,3.708,21.89C168.709,277.894,169.031,278.006,169.031,278.006z M77.99,354.97        c4.48-1.493,9.216-1.403,13.945-1.156c4.771,0.249,9.573,0.546,14.093,0.044c-2,1-0.238-1.794-2.238-1.794        c0.496-4.96,1.538-10.205,2.892-15.17c1.376-5.043,3.251-9.966,6.274-13.998c6.51,0,13.063,0.067,19.572,0.066        c6.491-0.001,12.903-0.359,19.394-1.357c6.958-1.656,13.7-3.634,19.306-7.377c5.789-3.865,10.478-9.159,14.271-15.013        c3.621-5.587,6.182-12.033,7.487-19.217c0.994-6.462,2.062-13.449,1.333-20.04c-0.736-6.668-3.255-12.96-8.284-17.989        c-5-6-12.087-6.66-19.087-7.66c-5-1-9.917,1.521-14.917,0.521c-5.996-1-11.77-0.916-17.517-0.792        c-5.753,0.125-11.509,0.492-17.513,0.992c-4,0-7.326-0.34-11.326-0.34c-1.498,5.743-2.901,11.726-4.307,17.469        c-1.408,5.757-2.525,11.578-3.902,17.335s-2.438,11.591-3.846,17.349c-1.404,5.742-2.781,11.501-4.279,17.243        c-1.332,5.663-2.521,11.318-3.705,16.981c-1.188,5.676-2.686,11.28-3.873,16.957c-1.185,5.66-2.21,11.368-3.542,17.029        C78.218,355.068,77.99,354.97,77.99,354.97z"/></g></g><path d="M271.049,284.255c-0.133-6.215-1.193-12.946-3.154-20.007c-0.046-0.163-0.096-0.325-0.149-0.486      c-2.103-6.309-4.392-11.802-6.999-16.792c-2.575-4.931-5.782-9.013-8.885-12.96c-0.539-0.687-1.078-1.373-1.611-2.062      c-4.354-5.621-8.289-9.926-12.384-13.548c-4.007-3.545-8.352-6.764-13.236-9.803c-0.804-1.56-2.238-3.761-4.892-5.39      c-2.491-1.798-4.74-2.935-6.571-3.86c-1.581-0.799-2.83-1.431-4.127-2.403c-0.354-0.266-0.728-0.508-1.114-0.725      c-5.719-3.203-11.536-6.081-16.97-8.714l-2.574-1.251c-4.743-2.31-9.648-4.699-14.709-6.8      c-5.282-2.19-11.445-4.713-17.752-6.925c-4.549-1.595-9.109-2.886-13.519-4.133c-1.57-0.444-3.139-0.888-4.7-1.344      c-5.844-1.708-12.016-3.339-18.347-4.852c-6.282-1.499-12.621-2.748-18.537-3.875l-2.147-0.41      c-5.349-1.022-10.88-2.08-16.467-2.899c-4.366-0.641-8.709-1.058-12.908-1.461c-1.948-0.187-3.897-0.374-5.845-0.584      c-4.717-0.507-9.427-0.826-13.981-1.134c-0.671-0.045-1.341-0.091-2.012-0.137c-1.05-0.387-2.169-0.6-3.313-0.616      c-2.363-0.035-4.758-0.159-7.293-0.292c-3.293-0.172-6.701-0.343-10.203-0.329c-6.032,0.036-12.158,0.237-17.564,0.414      c-4.202,0.138-8.371,0.448-12.402,0.747c-1.732,0.129-3.464,0.258-5.195,0.373c-4.334,0.287-8.603,0.774-12.731,1.245      c-1.622,0.185-3.244,0.371-4.868,0.543c-1.725,0.184-3.452,0.348-5.179,0.512c-4.053,0.385-8.245,0.783-12.475,1.435      c-6.263,0.966-12.377,2.205-17.533,3.289c-1.472,0.309-2.948,0.605-4.424,0.901c-4.258,0.854-8.662,1.738-13.079,2.956      c-4.086,1.126-7.891,2.583-11.57,3.993c-1.868,0.715-3.631,1.391-5.398,2.012c-5.441,1.914-10.921,4.091-16.753,6.654      c-6.288,2.765-11.46,5.266-16.276,7.871c-5.033,2.721-9.75,5.824-14.312,8.825l-1.087,0.715      c-1.548,1.017-3.201,2.003-4.952,3.047c-3.112,1.856-6.322,3.771-9.481,6.167c-1.255,0.473-2.727,1.257-4.185,2.659      c-4.753,4.4-9.033,9.207-12.476,13.074c-3.361,3.775-7.709,8.846-11.534,14.6c-3.281,4.937-6.687,10.351-9.371,16.482      c-0.061,0.139-0.118,0.279-0.173,0.42c-2.819,7.329-4.543,14.742-5.125,22.031c-0.535,6.687-0.513,13.883,0.063,21.389      c0.017,0.217,0.041,0.433,0.071,0.648c1.298,9.091,4.9,16.965,7.892,22.807c3.037,5.932,7.119,11.955,12.847,18.957      c0.151,0.185,0.309,0.364,0.474,0.538c4.933,5.218,9.442,9.584,13.785,13.349c4.272,3.704,8.713,6.837,13.009,9.868      c0.772,0.544,1.543,1.088,2.311,1.634c1.485,1.057,2.951,2.155,4.502,3.318c3.483,2.611,7.086,5.312,11.144,7.679      c3.963,2.312,7.974,4.096,11.852,5.82c1.853,0.824,3.603,1.603,5.314,2.422c6.297,3.015,11.962,5.503,17.318,7.604      c1.889,0.741,3.773,1.544,5.767,2.394c3.738,1.593,7.604,3.239,11.757,4.575c5.056,1.625,10.164,2.96,15.104,4.25l2.978,0.78      c3.993,1.052,7.95,1.802,11.777,2.526c2.253,0.427,4.381,0.83,6.498,1.288c6.529,1.411,12.487,2.594,18.215,3.614      c2.41,0.43,4.841,0.979,7.414,1.562c3.446,0.779,7.01,1.585,10.738,2.14c3.831,0.569,7.643,0.991,11.329,1.399      c2.332,0.259,4.66,0.516,6.978,0.811c2.515,0.318,5.106,0.694,7.611,1.058c3.453,0.501,7.023,1.02,10.601,1.423      c0.263,0.029,0.528,0.049,0.793,0.058c1.022,0.033,2.036,0.047,3.042,0.047c2.743,0,5.428-0.104,8.048-0.206      c2.711-0.106,5.279-0.209,7.793-0.19l3.471,0.024c5.034,0.039,10.237,0.078,15.456-0.072c2.309-0.067,4.636-0.058,7.104-0.047      c3.851,0.017,7.831,0.034,11.918-0.257c6.348-0.451,12.611-1.186,19.005-1.962c6.364-0.772,12.747-1.735,18.969-2.859      c4.406-0.797,8.571-1.958,12.6-3.08c2.097-0.585,4.078-1.137,6.065-1.633c6.004-1.498,12.062-3.259,18.518-5.383      c1.464-0.481,2.935-0.947,4.406-1.414c4.528-1.436,9.21-2.92,13.903-4.887c6.987-2.929,12.592-5.518,17.638-8.149      c5.252-2.739,10.392-5.463,15.407-8.558c2.921-0.955,4.792-2.827,5.843-3.877c0.597-0.598,1.645-1.43,2.658-2.235      c0.607-0.483,1.251-0.994,1.9-1.535c1.838-0.4,3.482-1.222,4.92-2.456c4.465-3.417,9.02-7.473,13.912-12.387      c0.588-0.592,1.18-1.181,1.771-1.77c3.83-3.815,7.792-7.761,11.206-12.47c3.55-4.896,6.773-10.424,9.856-16.9      c2.886-6.068,5.093-12.382,6.562-18.77C270.426,296.443,271.175,290.258,271.049,284.255z M249.128,299.834      c-1.144,4.969-2.87,9.9-5.131,14.656c-2.551,5.358-5.163,9.856-7.987,13.752c-2.473,3.41-5.706,6.63-9.129,10.039      c-0.611,0.609-1.224,1.219-1.832,1.83c-3.687,3.703-7.103,6.807-10.387,9.435c-2.282,0.426-4.278,1.482-5.957,3.161      c-0.597,0.598-1.645,1.43-2.658,2.235c-1.177,0.936-2.487,1.977-3.715,3.13c-0.532,0.221-1.047,0.488-1.537,0.8      c-4.839,3.08-9.865,5.746-15.459,8.664c-4.539,2.366-9.661,4.729-16.12,7.437c-3.864,1.619-7.923,2.906-12.219,4.269      c-1.54,0.488-3.078,0.977-4.609,1.48c-5.988,1.969-11.586,3.597-17.112,4.976c-2.251,0.563-4.458,1.177-6.592,1.771      c-3.753,1.046-7.298,2.034-10.788,2.665c-5.844,1.057-11.84,1.961-17.823,2.688c-6.131,0.744-12.123,1.447-18.009,1.866      c-3.338,0.236-6.773,0.221-10.417,0.206c-2.52-0.011-5.127-0.021-7.768,0.055c-4.852,0.139-9.871,0.103-14.726,0.064      l-3.508-0.024c-2.975-0.015-5.874,0.096-8.686,0.205c-3.236,0.126-6.303,0.244-9.269,0.166c-3.127-0.36-6.259-0.814-9.567-1.295      c-2.592-0.375-5.272-0.765-7.964-1.106c-2.423-0.307-4.856-0.577-7.294-0.847c-3.666-0.406-7.129-0.79-10.59-1.305      c-2.986-0.443-6.037-1.134-9.267-1.864c-2.681-0.606-5.454-1.233-8.316-1.743c-5.486-0.978-11.21-2.114-17.498-3.474      c-2.367-0.512-4.723-0.958-7.001-1.39c-3.647-0.69-7.092-1.344-10.402-2.216l-3.021-0.791c-4.891-1.277-9.51-2.484-14.036-3.939      c-3.281-1.056-6.564-2.454-10.041-3.936c-2.036-0.867-4.141-1.764-6.298-2.61c-4.902-1.924-10.132-4.223-15.99-7.026      c-1.964-0.94-3.925-1.813-5.822-2.656c-3.542-1.575-6.887-3.063-9.902-4.822c-3.062-1.786-6.055-4.03-9.225-6.406      c-1.582-1.186-3.218-2.412-4.91-3.615c-0.788-0.561-1.579-1.118-2.371-1.677c-4.073-2.873-7.919-5.587-11.438-8.638      c-3.768-3.266-7.73-7.101-12.106-11.715c-4.747-5.827-7.929-10.504-10.298-15.132c-2.245-4.384-4.925-10.168-5.85-16.214      c-0.472-6.344-0.486-12.371-0.042-17.923c0.423-5.306,1.692-10.764,3.772-16.228c2.062-4.653,4.876-9.105,7.617-13.228      c3.132-4.713,6.89-9.087,9.814-12.372c3.044-3.419,6.458-7.254,10.121-10.752c1.056-0.435,2.243-1.095,3.435-2.15      c2.339-1.807,5.041-3.418,7.894-5.12c1.856-1.107,3.775-2.252,5.688-3.508l1.098-0.722c4.4-2.895,8.557-5.629,12.832-7.94      c4.328-2.341,9.035-4.614,14.813-7.154c5.364-2.358,10.382-4.352,15.341-6.096c2.026-0.713,4.004-1.47,5.916-2.203      c3.383-1.296,6.578-2.52,9.73-3.389c3.733-1.029,7.603-1.805,11.698-2.627c1.538-0.309,3.075-0.617,4.607-0.939      c4.893-1.029,10.675-2.201,16.464-3.094c3.654-0.563,7.377-0.917,11.318-1.291c1.803-0.171,3.606-0.342,5.404-0.534      c1.674-0.178,3.347-0.369,5.021-0.56c4.076-0.465,7.925-0.904,11.785-1.16c1.785-0.118,3.57-0.251,5.355-0.383      c4.005-0.298,7.787-0.579,11.575-0.703c5.28-0.173,11.264-0.369,17.029-0.403c2.909-0.019,5.895,0.137,9.042,0.301      c1.674,0.087,3.385,0.177,5.12,0.24c0.626,0.201,1.276,0.34,1.939,0.414c0.127,0.014,0.253,0.025,0.38,0.035      c1.624,0.118,3.247,0.228,4.869,0.338c4.562,0.309,8.869,0.6,13.192,1.065c2.022,0.218,4.047,0.413,6.071,0.607      c4.138,0.398,8.046,0.773,11.919,1.341c5.159,0.757,10.237,1.728,15.614,2.755l2.161,0.413      c5.681,1.082,11.748,2.276,17.634,3.681c6.009,1.435,11.856,2.981,17.384,4.596c1.616,0.472,3.238,0.931,4.862,1.39      c4.309,1.219,8.378,2.371,12.345,3.762c5.818,2.042,11.676,4.439,16.707,6.526c4.506,1.87,8.931,4.025,13.616,6.307l2.609,1.269      c4.985,2.416,10.29,5.038,15.394,7.873c2.469,1.774,4.698,2.902,6.516,3.82c1.241,0.627,2.277,1.151,3.292,1.817      c0.834,1.665,2.408,4.175,5.521,5.887c4.389,2.648,8.204,5.423,11.658,8.48c3.177,2.81,6.207,6.146,9.824,10.816      c0.562,0.726,1.129,1.448,1.697,2.17c2.656,3.38,5.165,6.573,6.883,9.863c2.076,3.976,3.934,8.432,5.672,13.615      c1.473,5.364,2.268,10.354,2.362,14.836C251.144,288.965,250.549,293.641,249.128,299.834z"/></g></g></g><g id="Layer_1_1_"/></g></svg>